name pl04_filtered_grf.mot
datacolumns 37
datarows 10
range 0.002500 0.007000
endheader
time	1_ground_force_vx	1_ground_force_vy	1_ground_force_vz	1_ground_force_px	1_ground_force_py	1_ground_force_pz	1_ground_torque_x	1_ground_torque_y	1_ground_torque_z	2_ground_force_vx	2_ground_force_vy	2_ground_force_vz	2_ground_force_px	2_ground_force_py	2_ground_force_pz	2_ground_torque_x	2_ground_torque_y	2_ground_torque_z	3_ground_force_vx	3_ground_force_vy	3_ground_force_vz	3_ground_force_px	3_ground_force_py	3_ground_force_pz	3_ground_torque_x	3_ground_torque_y	3_ground_torque_z	4_ground_force_vx	4_ground_force_vy	4_ground_force_vz	4_ground_force_px	4_ground_force_py	4_ground_force_pz	4_ground_torque_x	4_ground_torque_y	4_ground_torque_z
            0.002500	           -0.000000	            0.000000	            0.000000	            0.132236	            0.000000	            0.267992	            0.000000	            0.000000	           -0.000000	            0.000000	            0.000000	            0.000000	           -0.141844	            0.000000	            0.275422	            0.000000	           -0.000000	            0.000000	           -9.857484	          320.875003	          251.703140	            0.374701	            1.309581	            1.914706	           -2.214762	           21.081612	          -52.316057	           -8.269519	          455.872082	          291.913266	           -0.266524	            1.308938	            1.925859	           -0.314281	           17.325328	           11.094106
            0.003000	           -0.000000	            0.000000	            0.000000	            0.132236	            0.000000	            0.267992	            0.000000	            0.000000	           -0.000000	            0.000000	            0.000000	            0.000000	           -0.141844	            0.000000	            0.275422	            0.000000	           -0.000000	            0.000000	           -9.895668	          320.654658	          251.943371	            0.374701	            1.309581	            1.914706	           -2.185582	           21.116632	          -52.316604	           -8.326954	          456.274931	          292.736915	           -0.266524	            1.308938	            1.925859	           -0.316644	           17.350467	           11.131714
            0.003500	           -0.000000	            0.000000	            0.000000	            0.132236	            0.000000	            0.267992	            0.000000	            0.000000	           -0.000000	            0.000000	            0.000000	            0.000000	           -0.141844	            0.000000	            0.275422	            0.000000	           -0.000000	            0.000000	           -9.947142	          320.431403	          252.182679	            0.374696	            1.309577	            1.914732	           -2.153698	           21.152348	          -52.317498	           -8.380931	          456.685545	          293.573686	           -0.266518	            1.308934	            1.925860	           -0.318867	           17.375375	           11.169508
            0.004000	           -0.000000	            0.000000	            0.000000	            0.132236	            0.000000	            0.267992	            0.000000	            0.000000	           -0.000000	            0.000000	            0.000000	            0.000000	           -0.141844	            0.000000	            0.275422	            0.000000	           -0.000000	            0.000000	          -10.010462	          320.205822	          252.421087	            0.374690	            1.309574	            1.914758	           -2.119439	           21.188754	          -52.318791	           -8.431053	          457.103145	          294.421971	           -0.266512	            1.308930	            1.925861	           -0.320934	           17.399971	           11.207391
            0.004500	           -0.000000	            0.000000	            0.000000	            0.132236	            0.000000	            0.267992	            0.000000	            0.000000	           -0.000000	            0.000000	            0.000000	            0.000000	           -0.141844	            0.000000	            0.275422	            0.000000	           -0.000000	            0.000000	          -10.084270	          319.978520	          252.658685	            0.374684	            1.309570	            1.914784	           -2.083112	           21.225848	          -52.320538	           -8.476945	          457.526928	          295.280175	           -0.266505	            1.308926	            1.925862	           -0.322831	           17.424177	           11.245270
            0.005000	           -0.000000	            0.000000	            0.000000	            0.132236	            0.000000	            0.267992	            0.000000	            0.000000	           -0.000000	            0.000000	            0.000000	            0.000000	           -0.141844	            0.000000	            0.275422	            0.000000	           -0.000000	            0.000000	          -10.167321	          319.750127	          252.895623	            0.374678	            1.309567	            1.914809	           -2.044994	           21.263630	          -52.322806	           -8.518259	          457.956071	          296.146732	           -0.266499	            1.308922	            1.925863	           -0.324542	           17.447921	           11.283058
            0.005500	           -0.000000	            0.000000	            0.000000	            0.132236	            0.000000	            0.267992	            0.000000	            0.000000	           -0.000000	            0.000000	            0.000000	            0.000000	           -0.141844	            0.000000	            0.275422	            0.000000	           -0.000000	            0.000000	          -10.254431	          319.519224	          253.134894	            0.374671	            1.309561	            1.914833	           -2.006174	           21.302535	          -52.325459	           -8.557312	          458.387188	          297.023969	           -0.266494	            1.308918	            1.925865	           -0.326155	           17.471040	           11.320818
            0.006000	           -0.000000	            0.000000	            0.000000	            0.132236	            0.000000	            0.267992	            0.000000	            0.000000	           -0.000000	            0.000000	            0.000000	            0.000000	           -0.141844	            0.000000	            0.275422	            0.000000	           -0.000000	            0.000000	          -10.347986	          319.288542	          253.374025	            0.374664	            1.309556	            1.914857	           -1.966164	           21.342146	          -52.328777	           -8.591219	          458.821967	          297.906543	           -0.266488	            1.308914	            1.925866	           -0.327559	           17.493569	           11.358324
            0.006500	           -0.000000	            0.000000	            0.000000	            0.132236	            0.000000	            0.267992	            0.000000	            0.000000	           -0.000000	            0.000000	            0.000000	            0.000000	           -0.141844	            0.000000	            0.275422	            0.000000	           -0.000000	            0.000000	          -10.447215	          319.058762	          253.613353	            0.374657	            1.309550	            1.914881	           -1.925131	           21.382478	          -52.332843	           -8.619728	          459.259557	          298.793018	           -0.266483	            1.308910	            1.925868	           -0.328743	           17.515453	           11.395506
            0.007000	           -0.000000	            0.000000	            0.000000	            0.132236	            0.000000	            0.267992	            0.000000	            0.000000	           -0.000000	            0.000000	            0.000000	            0.000000	           -0.141844	            0.000000	            0.275422	            0.000000	           -0.000000	            0.000000	          -10.551431	          318.830575	          253.853274	            0.374650	            1.309545	            1.914905	           -1.883216	           21.423550	          -52.337748	           -8.642620	          459.699103	          299.682015	           -0.266478	            1.308907	            1.925870	           -0.329699	           17.536643	           11.432297
